<?xml version="1.0" encoding="UTF-8"?>
<svg id="Layer_1" xmlns="http://www.w3.org/2000/svg" width="3.6in" height="3.6in" version="1.1" xmlns:xlink="http://www.w3.org/1999/xlink" viewBox="0 0 256 256">
  <!-- Generator: Adobe Illustrator 29.2.1, SVG Export Plug-In . SVG Version: 2.1.0 Build 116)  -->
  <defs>
    <style>
      .st0 {
        fill: #fff;
      }
    </style>
  </defs>
  <path class="st0" d="M128,25.5c-56.6,0-102.5,46.6-102.5,104.1s32.7,89.4,77,100.9c0-12,0-26.8,0-31.4-29.6,6.5-35.8-12.7-35.8-12.7-4.8-12.5-11.8-15.8-11.8-15.8-9.6-6.7.7-6.6.7-6.6,10.7.8,16.3,11.1,16.3,11.1,9.5,16.5,24.9,11.7,30.9,9,1-7,3.7-11.7,6.8-14.4-23.6-2.7-48.4-12-48.4-53.4s4.2-21.4,11-29c-1.1-2.7-4.7-13.7,1-28.6,0,0,8.9-2.9,29.2,11.1,8.5-2.4,17.6-3.6,26.6-3.6,9,0,18.1,1.2,26.6,3.6,20.3-14,29.2-11.1,29.2-11.1,5.8,14.9,2.1,25.9,1,28.6,6.8,7.6,10.9,17.2,10.9,29,0,41.5-24.9,50.6-48.6,53.3,3.8,3.4,7.2,9.9,7.2,20s0,26.4,0,40.4c43.3-12.1,75.2-52.5,75.2-100.4S184.6,25.5,128,25.5Z"/>
</svg>