<?xml version="1.0" encoding="UTF-8"?>
<svg id="Apple" xmlns="http://www.w3.org/2000/svg" width="7.1in" height="7.1in" version="1.1" xmlns:xlink="http://www.w3.org/1999/xlink" viewBox="0 0 512 512">
  <!-- Generator: Adobe Illustrator 29.2.1, SVG Export Plug-In . SVG Version: 2.1.0 Build 116)  -->
  <defs>
    <style>
      .st0 {
        fill: #fff;
      }
    </style>
  </defs>
  <rect class="st0" x="23.5" y="23.5" width="465.1" height="465.1" rx="107.2" ry="107.2"/>
  <path class="st0" d="M331,115.2c36.7.1,66.5,29.9,66.6,66.6v148.3c-.1,36.7-29.9,66.5-66.6,66.6h-150c-36.7-.1-66.5-29.9-66.7-66.6v-148.3c.1-36.7,29.9-66.5,66.7-66.6h150M331,84.2h-150c-53.7,0-97.7,44-97.7,97.7v148.2c0,53.7,44,97.7,97.7,97.7h150c53.7,0,97.7-44,97.7-97.7v-148.3c0-53.7-44-97.7-97.7-97.7h0Z"/>
  <path class="st0" d="M256,198.1c32,0,57.9,25.9,57.9,57.9s-25.9,57.9-57.9,57.9-57.9-25.9-57.9-57.9h0c0-31.9,25.9-57.8,57.9-57.9M256,167.1c-49.1,0-88.9,39.8-88.9,88.9s39.8,88.9,88.9,88.9,88.9-39.8,88.9-88.9h0c0-49.1-39.8-88.9-88.9-88.9Z"/>
  <circle class="st0" cx="346.8" cy="163.2" r="21.1"/>
</svg>